<svg width="156" height="24" viewBox="0 0 156 24" fill="none" xmlns="http://www.w3.org/2000/svg">
<path d="M11 17C11 18.0609 10.5786 19.0783 9.82843 19.8284C9.07828 20.5786 8.06087 21 7 21C5.93913 21 4.92172 20.5786 4.17157 19.8284C3.42143 19.0783 3 18.0609 3 17V5C3 4.46957 3.21071 3.96086 3.58579 3.58579C3.96086 3.21071 4.46957 3 5 3H9C9.53043 3 10.0391 3.21071 10.4142 3.58579C10.7893 3.96086 11 4.46957 11 5V17Z" stroke="white" stroke-width="2" stroke-linecap="round" stroke-linejoin="round"/>
<path d="M16.7 13H19C19.5304 13 20.0391 13.2107 20.4142 13.5858C20.7893 13.9609 21 14.4696 21 15V19C21 19.5304 20.7893 20.0391 20.4142 20.4142C20.0391 20.7893 19.5304 21 19 21H7" stroke="white" stroke-width="2" stroke-linecap="round" stroke-linejoin="round"/>
<path d="M7 17H7.01" stroke="white" stroke-width="2" stroke-linecap="round" stroke-linejoin="round"/>
<path d="M11 8.00001L13.3 5.70001C13.5233 5.47593 13.7887 5.29821 14.0809 5.17706C14.3732 5.05592 14.6865 4.99374 15.0028 4.99411C15.3192 4.99448 15.6323 5.05739 15.9243 5.17923C16.2162 5.30106 16.4812 5.47941 16.704 5.70401L18.6 7.60001C18.8306 7.82182 19.0145 8.0875 19.1409 8.38143C19.2674 8.67535 19.3337 8.99159 19.3362 9.31154C19.3386 9.63149 19.277 9.94869 19.155 10.2445C19.0331 10.5403 18.8532 10.8087 18.626 11.034L9.9 19.8" stroke="white" stroke-width="2" stroke-linecap="round" stroke-linejoin="round"/>
<path d="M39.5312 8.27557C39.4555 7.60322 39.143 7.08239 38.5938 6.71307C38.0445 6.33902 37.3532 6.15199 36.5199 6.15199C35.9233 6.15199 35.4072 6.24669 34.9716 6.43608C34.536 6.62074 34.1974 6.87642 33.956 7.20312C33.7192 7.52509 33.6009 7.89205 33.6009 8.30398C33.6009 8.64962 33.6813 8.94792 33.8423 9.19886C34.008 9.44981 34.2235 9.66051 34.4886 9.83097C34.7585 9.99669 35.0473 10.1364 35.3551 10.25C35.6629 10.3589 35.9588 10.4489 36.2429 10.5199L37.6634 10.8892C38.1274 11.0028 38.6032 11.1567 39.0909 11.3509C39.5786 11.545 40.0308 11.8007 40.4474 12.1179C40.8641 12.4351 41.2003 12.8281 41.456 13.2969C41.7164 13.7656 41.8466 14.3267 41.8466 14.9801C41.8466 15.804 41.6335 16.5355 41.2074 17.1747C40.786 17.8139 40.1728 18.3182 39.3679 18.6875C38.5677 19.0568 37.5994 19.2415 36.4631 19.2415C35.3741 19.2415 34.4318 19.0687 33.6364 18.723C32.8409 18.3774 32.2183 17.8873 31.7685 17.2528C31.3187 16.6136 31.0701 15.8561 31.0227 14.9801H33.2244C33.267 15.5057 33.4375 15.9437 33.7358 16.294C34.0388 16.6397 34.4247 16.8977 34.8935 17.0682C35.367 17.2339 35.8854 17.3168 36.4489 17.3168C37.0691 17.3168 37.6207 17.2197 38.1037 17.0256C38.5914 16.8267 38.9749 16.5521 39.2543 16.2017C39.5336 15.8466 39.6733 15.4323 39.6733 14.9588C39.6733 14.5279 39.5502 14.1752 39.304 13.9006C39.0625 13.6259 38.7334 13.3987 38.3168 13.2188C37.9048 13.0388 37.4384 12.8802 36.9176 12.7429L35.1989 12.2741C34.0341 11.9569 33.1108 11.4905 32.429 10.875C31.7519 10.2595 31.4134 9.44508 31.4134 8.43182C31.4134 7.59375 31.6406 6.86222 32.0952 6.23722C32.5497 5.61222 33.1652 5.12689 33.9418 4.78125C34.7183 4.43087 35.5942 4.25568 36.5696 4.25568C37.5545 4.25568 38.4233 4.4285 39.1761 4.77415C39.9337 5.11979 40.5303 5.59564 40.9659 6.2017C41.4015 6.80303 41.6288 7.49432 41.6477 8.27557H39.5312ZM48.8938 19.2202C47.8379 19.2202 46.9289 18.9811 46.1665 18.5028C45.409 18.0199 44.8266 17.3546 44.4194 16.5071C44.0122 15.6596 43.8086 14.6889 43.8086 13.5952C43.8086 12.4872 44.0169 11.5095 44.4336 10.6619C44.8503 9.80966 45.4374 9.14441 46.195 8.66619C46.9525 8.18797 47.8451 7.94886 48.8725 7.94886C49.7011 7.94886 50.4397 8.10275 51.0884 8.41051C51.7371 8.71354 52.2603 9.13968 52.658 9.68892C53.0605 10.2382 53.2996 10.8797 53.3754 11.6136H51.3086C51.195 11.1023 50.9345 10.6619 50.5273 10.2926C50.1249 9.9233 49.5851 9.73864 48.908 9.73864C48.3162 9.73864 47.7977 9.89489 47.3526 10.2074C46.9123 10.5152 46.569 10.9555 46.3228 11.5284C46.0766 12.0966 45.9535 12.7689 45.9535 13.5455C45.9535 14.3409 46.0742 15.0275 46.3157 15.6051C46.5572 16.1828 46.8981 16.6302 47.3384 16.9474C47.7835 17.2647 48.3067 17.4233 48.908 17.4233C49.3105 17.4233 49.6751 17.3499 50.0018 17.2031C50.3332 17.0516 50.6102 16.8362 50.8327 16.5568C51.06 16.2775 51.2186 15.9413 51.3086 15.5483H53.3754C53.2996 16.2538 53.07 16.8835 52.6864 17.4375C52.3029 17.9915 51.7892 18.4271 51.1452 18.7443C50.506 19.0616 49.7556 19.2202 48.8938 19.2202ZM57.7699 12.5227V19H55.6463V4.45455H57.7415V9.86648H57.8764C58.1321 9.27936 58.5227 8.81297 59.0483 8.46733C59.5739 8.12169 60.2604 7.94886 61.108 7.94886C61.8561 7.94886 62.5095 8.10275 63.0682 8.41051C63.6316 8.71828 64.0672 9.17756 64.375 9.78835C64.6875 10.3944 64.8438 11.152 64.8438 12.0611V19H62.7202V12.3168C62.7202 11.5166 62.5142 10.8963 62.1023 10.456C61.6903 10.0109 61.1174 9.78835 60.3835 9.78835C59.8816 9.78835 59.4318 9.89489 59.0341 10.108C58.6411 10.321 58.331 10.6335 58.1037 11.0455C57.8812 11.4527 57.7699 11.9451 57.7699 12.5227ZM72.3793 19.2202C71.3045 19.2202 70.3788 18.9905 69.6023 18.5312C68.8305 18.0672 68.2339 17.4162 67.8125 16.5781C67.3958 15.7353 67.1875 14.7481 67.1875 13.6165C67.1875 12.4991 67.3958 11.5142 67.8125 10.6619C68.2339 9.80966 68.821 9.14441 69.5739 8.66619C70.3314 8.18797 71.2169 7.94886 72.2301 7.94886C72.8456 7.94886 73.4422 8.05066 74.0199 8.25426C74.5975 8.45786 75.116 8.77746 75.5753 9.21307C76.0346 9.64867 76.3968 10.2145 76.6619 10.9105C76.9271 11.6018 77.0597 12.4422 77.0597 13.4318V14.1847H68.3878V12.5938H74.9787C74.9787 12.035 74.8651 11.5402 74.6378 11.1094C74.4105 10.6738 74.0909 10.3305 73.679 10.0795C73.2718 9.8286 72.7936 9.70312 72.2443 9.70312C71.6477 9.70312 71.1269 9.84991 70.6818 10.1435C70.2415 10.4323 69.9006 10.8111 69.6591 11.2798C69.4223 11.7438 69.304 12.2481 69.304 12.7926V14.0355C69.304 14.7647 69.4318 15.3849 69.6875 15.8963C69.9479 16.4077 70.3101 16.7983 70.7741 17.0682C71.2382 17.3333 71.7803 17.4659 72.4006 17.4659C72.803 17.4659 73.17 17.4091 73.5014 17.2955C73.8329 17.1771 74.1193 17.0019 74.3608 16.7699C74.6023 16.5379 74.7869 16.2514 74.9148 15.9105L76.9247 16.2727C76.7637 16.8646 76.4749 17.383 76.0582 17.8281C75.6463 18.2685 75.1278 18.6117 74.5028 18.858C73.8826 19.0994 73.1747 19.2202 72.3793 19.2202ZM79.4158 19V8.09091H81.4542V9.86648H81.5891C81.8164 9.26515 82.1881 8.7964 82.7042 8.46023C83.2203 8.11932 83.8382 7.94886 84.5579 7.94886C85.2871 7.94886 85.8978 8.11932 86.3903 8.46023C86.8874 8.80114 87.2544 9.26989 87.4911 9.86648H87.6048C87.8652 9.28409 88.2795 8.82008 88.8477 8.47443C89.4158 8.12405 90.0929 7.94886 90.8789 7.94886C91.8685 7.94886 92.6758 8.259 93.3008 8.87926C93.9305 9.49953 94.2454 10.4347 94.2454 11.6847V19H92.1218V11.8835C92.1218 11.1449 91.9206 10.6098 91.5181 10.2784C91.1156 9.94697 90.6351 9.78125 90.0763 9.78125C89.3851 9.78125 88.8477 9.99432 88.4641 10.4205C88.0806 10.8419 87.8888 11.384 87.8888 12.0469V19H85.7724V11.7486C85.7724 11.1567 85.5877 10.6809 85.2184 10.321C84.8491 9.96117 84.3685 9.78125 83.7766 9.78125C83.3742 9.78125 83.0025 9.88778 82.6616 10.1009C82.3254 10.3092 82.0531 10.6004 81.8448 10.9744C81.6412 11.3485 81.5394 11.7817 81.5394 12.2741V19H79.4158ZM100.266 19.2415C99.575 19.2415 98.95 19.1136 98.3913 18.858C97.8326 18.5975 97.3899 18.2211 97.0632 17.7287C96.7412 17.2363 96.5803 16.6326 96.5803 15.9176C96.5803 15.3021 96.6986 14.7955 96.9354 14.3977C97.1721 14 97.4917 13.6851 97.8942 13.4531C98.2966 13.2211 98.7464 13.0459 99.2436 12.9276C99.7408 12.8092 100.247 12.7192 100.763 12.6577C101.417 12.5819 101.947 12.5204 102.354 12.473C102.762 12.4209 103.058 12.3381 103.242 12.2244C103.427 12.1108 103.519 11.9261 103.519 11.6705V11.6207C103.519 11.0005 103.344 10.5199 102.994 10.179C102.648 9.83807 102.132 9.66761 101.445 9.66761C100.73 9.66761 100.167 9.82623 99.755 10.1435C99.3478 10.456 99.0661 10.804 98.9098 11.1875L96.9141 10.733C97.1508 10.0701 97.4964 9.53504 97.951 9.12784C98.4103 8.71591 98.9382 8.41761 99.5348 8.23295C100.131 8.04356 100.759 7.94886 101.417 7.94886C101.853 7.94886 102.314 8.00095 102.802 8.10511C103.294 8.20455 103.754 8.3892 104.18 8.65909C104.611 8.92898 104.963 9.31487 105.238 9.81676C105.513 10.3139 105.65 10.9602 105.65 11.7557V19H103.576V17.5085H103.491C103.353 17.7831 103.147 18.053 102.873 18.3182C102.598 18.5833 102.246 18.8035 101.815 18.9787C101.384 19.1539 100.868 19.2415 100.266 19.2415ZM100.728 17.5369C101.315 17.5369 101.817 17.4209 102.234 17.1889C102.655 16.9569 102.975 16.6539 103.192 16.2798C103.415 15.901 103.526 15.4962 103.526 15.0653V13.6591C103.451 13.7348 103.304 13.8059 103.086 13.8722C102.873 13.9337 102.629 13.9882 102.354 14.0355C102.08 14.0781 101.812 14.1184 101.552 14.1562C101.291 14.1894 101.074 14.2178 100.898 14.2415C100.487 14.2936 100.11 14.3812 99.7692 14.5043C99.433 14.6274 99.1631 14.8049 98.9595 15.0369C98.7607 15.2642 98.6612 15.5672 98.6612 15.946C98.6612 16.4716 98.8554 16.8693 99.2436 17.1392C99.6319 17.4044 100.127 17.5369 100.728 17.5369ZM120.73 9.18466H118.514C118.429 8.71117 118.27 8.29451 118.038 7.93466C117.806 7.57481 117.522 7.26941 117.186 7.01847C116.85 6.76752 116.473 6.57812 116.056 6.45028C115.645 6.32244 115.207 6.25852 114.743 6.25852C113.904 6.25852 113.154 6.46922 112.491 6.89062C111.833 7.31203 111.312 7.92992 110.929 8.74432C110.55 9.55871 110.36 10.553 110.36 11.7273C110.36 12.911 110.55 13.91 110.929 14.7244C111.312 15.5388 111.835 16.1544 112.498 16.571C113.161 16.9877 113.907 17.196 114.735 17.196C115.195 17.196 115.63 17.1345 116.042 17.0114C116.459 16.8835 116.835 16.6965 117.172 16.4503C117.508 16.2041 117.792 15.9034 118.024 15.5483C118.261 15.1884 118.424 14.7765 118.514 14.3125L120.73 14.3196C120.611 15.0346 120.382 15.6927 120.041 16.294C119.705 16.8906 119.271 17.4067 118.741 17.8423C118.216 18.2732 117.614 18.607 116.937 18.8438C116.26 19.0805 115.521 19.1989 114.721 19.1989C113.462 19.1989 112.34 18.9006 111.355 18.304C110.37 17.7027 109.593 16.8433 109.025 15.7259C108.462 14.6084 108.18 13.2756 108.18 11.7273C108.18 10.1742 108.464 8.84138 109.032 7.72869C109.6 6.61127 110.377 5.75426 111.362 5.15767C112.347 4.55634 113.467 4.25568 114.721 4.25568C115.493 4.25568 116.213 4.36695 116.88 4.58949C117.553 4.80729 118.156 5.12926 118.691 5.5554C119.226 5.9768 119.669 6.4929 120.02 7.10369C120.37 7.70975 120.607 8.40341 120.73 9.18466ZM123.185 19V8.09091H125.238V9.82386H125.352C125.55 9.23674 125.901 8.77509 126.403 8.43892C126.909 8.09801 127.482 7.92756 128.121 7.92756C128.254 7.92756 128.41 7.93229 128.59 7.94176C128.775 7.95123 128.919 7.96307 129.023 7.97727V10.0085C128.938 9.98485 128.787 9.95881 128.569 9.9304C128.351 9.89725 128.133 9.88068 127.915 9.88068C127.414 9.88068 126.966 9.98722 126.573 10.2003C126.185 10.4086 125.877 10.6998 125.65 11.0739C125.423 11.4432 125.309 11.8646 125.309 12.3381V19H123.185ZM133.938 19.2415C133.247 19.2415 132.622 19.1136 132.063 18.858C131.504 18.5975 131.062 18.2211 130.735 17.7287C130.413 17.2363 130.252 16.6326 130.252 15.9176C130.252 15.3021 130.371 14.7955 130.607 14.3977C130.844 14 131.164 13.6851 131.566 13.4531C131.969 13.2211 132.418 13.0459 132.915 12.9276C133.413 12.8092 133.919 12.7192 134.435 12.6577C135.089 12.5819 135.619 12.5204 136.026 12.473C136.433 12.4209 136.729 12.3381 136.914 12.2244C137.099 12.1108 137.191 11.9261 137.191 11.6705V11.6207C137.191 11.0005 137.016 10.5199 136.665 10.179C136.32 9.83807 135.804 9.66761 135.117 9.66761C134.402 9.66761 133.839 9.82623 133.427 10.1435C133.02 10.456 132.738 10.804 132.582 11.1875L130.586 10.733C130.823 10.0701 131.168 9.53504 131.623 9.12784C132.082 8.71591 132.61 8.41761 133.207 8.23295C133.803 8.04356 134.431 7.94886 135.089 7.94886C135.524 7.94886 135.986 8.00095 136.474 8.10511C136.966 8.20455 137.425 8.3892 137.852 8.65909C138.282 8.92898 138.635 9.31487 138.91 9.81676C139.184 10.3139 139.322 10.9602 139.322 11.7557V19H137.248V17.5085H137.163C137.025 17.7831 136.819 18.053 136.545 18.3182C136.27 18.5833 135.917 18.8035 135.487 18.9787C135.056 19.1539 134.54 19.2415 133.938 19.2415ZM134.4 17.5369C134.987 17.5369 135.489 17.4209 135.906 17.1889C136.327 16.9569 136.647 16.6539 136.864 16.2798C137.087 15.901 137.198 15.4962 137.198 15.0653V13.6591C137.122 13.7348 136.976 13.8059 136.758 13.8722C136.545 13.9337 136.301 13.9882 136.026 14.0355C135.752 14.0781 135.484 14.1184 135.224 14.1562C134.963 14.1894 134.746 14.2178 134.57 14.2415C134.158 14.2936 133.782 14.3812 133.441 14.5043C133.105 14.6274 132.835 14.8049 132.631 15.0369C132.433 15.2642 132.333 15.5672 132.333 15.946C132.333 16.4716 132.527 16.8693 132.915 17.1392C133.304 17.4044 133.799 17.5369 134.4 17.5369ZM147.342 8.09091V9.79545H141.177V8.09091H147.342ZM142.868 19V6.8267C142.868 6.14489 143.017 5.57907 143.315 5.12926C143.613 4.67472 144.009 4.33617 144.501 4.11364C144.993 3.88636 145.529 3.77273 146.106 3.77273C146.532 3.77273 146.897 3.80824 147.2 3.87926C147.503 3.94555 147.728 4.0071 147.875 4.06392L147.377 5.78267C147.278 5.75426 147.15 5.72112 146.994 5.68324C146.838 5.64062 146.648 5.61932 146.426 5.61932C145.91 5.61932 145.54 5.74716 145.318 6.00284C145.1 6.25852 144.991 6.62784 144.991 7.1108V19H142.868ZM154.625 8.09091V9.79545H148.667V8.09091H154.625ZM150.265 5.47727H152.388V15.7969C152.388 16.2088 152.45 16.5189 152.573 16.7273C152.696 16.9309 152.855 17.0705 153.049 17.1463C153.248 17.2173 153.463 17.2528 153.695 17.2528C153.865 17.2528 154.015 17.241 154.142 17.2173C154.27 17.1937 154.37 17.1747 154.441 17.1605L154.824 18.9148C154.701 18.9621 154.526 19.0095 154.299 19.0568C154.071 19.1089 153.787 19.1373 153.446 19.142C152.888 19.1515 152.367 19.0521 151.884 18.8438C151.401 18.6354 151.01 18.3134 150.712 17.8778C150.414 17.4422 150.265 16.8954 150.265 16.2372V5.47727Z" fill="white"/>
</svg>
